<mxfile host="app.diagrams.net" agent="Mozilla/5.0 (Windows NT 10.0; Win64; x64) AppleWebKit/537.36 (KHTML, like Gecko) Chrome/139.0.0.0 Safari/537.36" version="28.1.1" pages="2">
  <diagram name="Página-1" id="WuqxIkKV-rCm1HuZ006O">
    <mxGraphModel dx="1042" dy="562" grid="1" gridSize="10" guides="1" tooltips="1" connect="1" arrows="1" fold="1" page="1" pageScale="1" pageWidth="827" pageHeight="1169" math="0" shadow="0">
      <root>
        <mxCell id="0" />
        <mxCell id="1" parent="0" />
        <mxCell id="dN3xZx-nXK1pb2TBWnSj-9" style="edgeStyle=orthogonalEdgeStyle;rounded=0;orthogonalLoop=1;jettySize=auto;html=1;entryX=1;entryY=0.5;entryDx=0;entryDy=0;endArrow=none;endFill=0;" edge="1" parent="1" source="dN3xZx-nXK1pb2TBWnSj-1" target="dN3xZx-nXK1pb2TBWnSj-6">
          <mxGeometry relative="1" as="geometry" />
        </mxCell>
        <mxCell id="dN3xZx-nXK1pb2TBWnSj-13" style="edgeStyle=orthogonalEdgeStyle;rounded=0;orthogonalLoop=1;jettySize=auto;html=1;endArrow=none;endFill=0;" edge="1" parent="1" source="dN3xZx-nXK1pb2TBWnSj-1" target="dN3xZx-nXK1pb2TBWnSj-10">
          <mxGeometry relative="1" as="geometry" />
        </mxCell>
        <mxCell id="dN3xZx-nXK1pb2TBWnSj-17" style="edgeStyle=orthogonalEdgeStyle;rounded=0;orthogonalLoop=1;jettySize=auto;html=1;entryX=0;entryY=0.5;entryDx=0;entryDy=0;strokeColor=default;endArrow=none;endFill=0;" edge="1" parent="1" source="dN3xZx-nXK1pb2TBWnSj-1" target="dN3xZx-nXK1pb2TBWnSj-15">
          <mxGeometry relative="1" as="geometry" />
        </mxCell>
        <mxCell id="dN3xZx-nXK1pb2TBWnSj-1" value="Consulta" style="whiteSpace=wrap;html=1;align=center;" vertex="1" parent="1">
          <mxGeometry x="500" y="160" width="100" height="40" as="geometry" />
        </mxCell>
        <mxCell id="dN3xZx-nXK1pb2TBWnSj-7" style="edgeStyle=orthogonalEdgeStyle;rounded=0;orthogonalLoop=1;jettySize=auto;html=1;endArrow=none;endFill=0;" edge="1" parent="1" source="dN3xZx-nXK1pb2TBWnSj-2" target="dN3xZx-nXK1pb2TBWnSj-6">
          <mxGeometry relative="1" as="geometry" />
        </mxCell>
        <mxCell id="dN3xZx-nXK1pb2TBWnSj-2" value="Medico" style="whiteSpace=wrap;html=1;align=center;" vertex="1" parent="1">
          <mxGeometry x="110" y="160" width="100" height="40" as="geometry" />
        </mxCell>
        <mxCell id="dN3xZx-nXK1pb2TBWnSj-18" style="edgeStyle=orthogonalEdgeStyle;rounded=0;orthogonalLoop=1;jettySize=auto;html=1;endArrow=none;endFill=0;" edge="1" parent="1" source="dN3xZx-nXK1pb2TBWnSj-3" target="dN3xZx-nXK1pb2TBWnSj-15">
          <mxGeometry relative="1" as="geometry" />
        </mxCell>
        <mxCell id="dN3xZx-nXK1pb2TBWnSj-3" value="Clinica" style="rounded=1;arcSize=10;whiteSpace=wrap;html=1;align=center;" vertex="1" parent="1">
          <mxGeometry x="880" y="160" width="100" height="40" as="geometry" />
        </mxCell>
        <mxCell id="dN3xZx-nXK1pb2TBWnSj-4" value="Paciente" style="whiteSpace=wrap;html=1;align=center;" vertex="1" parent="1">
          <mxGeometry x="500" y="370" width="100" height="40" as="geometry" />
        </mxCell>
        <mxCell id="dN3xZx-nXK1pb2TBWnSj-6" value="Tem" style="shape=rhombus;perimeter=rhombusPerimeter;whiteSpace=wrap;html=1;align=center;" vertex="1" parent="1">
          <mxGeometry x="293.5" y="150" width="120" height="60" as="geometry" />
        </mxCell>
        <mxCell id="dN3xZx-nXK1pb2TBWnSj-14" style="edgeStyle=orthogonalEdgeStyle;rounded=0;orthogonalLoop=1;jettySize=auto;html=1;endArrow=none;endFill=0;" edge="1" parent="1" source="dN3xZx-nXK1pb2TBWnSj-10" target="dN3xZx-nXK1pb2TBWnSj-4">
          <mxGeometry relative="1" as="geometry" />
        </mxCell>
        <mxCell id="dN3xZx-nXK1pb2TBWnSj-10" value="Tem" style="shape=rhombus;perimeter=rhombusPerimeter;whiteSpace=wrap;html=1;align=center;" vertex="1" parent="1">
          <mxGeometry x="490" y="260" width="120" height="60" as="geometry" />
        </mxCell>
        <mxCell id="dN3xZx-nXK1pb2TBWnSj-15" value="Tem" style="shape=rhombus;perimeter=rhombusPerimeter;whiteSpace=wrap;html=1;align=center;" vertex="1" parent="1">
          <mxGeometry x="690" y="150" width="120" height="60" as="geometry" />
        </mxCell>
      </root>
    </mxGraphModel>
  </diagram>
  <diagram id="WiG9XTRpf4nYsiDRINGH" name="Página-2">
    <mxGraphModel dx="1226" dy="661" grid="1" gridSize="10" guides="1" tooltips="1" connect="1" arrows="1" fold="1" page="1" pageScale="1" pageWidth="827" pageHeight="1169" math="0" shadow="0">
      <root>
        <mxCell id="0" />
        <mxCell id="1" parent="0" />
        <mxCell id="0ocJRL83DzMjkrTS3D_y-2" style="edgeStyle=orthogonalEdgeStyle;rounded=0;orthogonalLoop=1;jettySize=auto;html=1;entryX=1;entryY=0.5;entryDx=0;entryDy=0;endArrow=none;endFill=0;" edge="1" parent="1" source="r9oNSFr8-LkXDj52V4li-1" target="r9oNSFr8-LkXDj52V4li-4">
          <mxGeometry relative="1" as="geometry" />
        </mxCell>
        <mxCell id="0ocJRL83DzMjkrTS3D_y-4" style="edgeStyle=orthogonalEdgeStyle;rounded=0;orthogonalLoop=1;jettySize=auto;html=1;entryX=0;entryY=0.5;entryDx=0;entryDy=0;endArrow=none;endFill=0;" edge="1" parent="1" source="r9oNSFr8-LkXDj52V4li-1" target="r9oNSFr8-LkXDj52V4li-8">
          <mxGeometry relative="1" as="geometry">
            <Array as="points">
              <mxPoint x="530" y="160" />
              <mxPoint x="530" y="160" />
            </Array>
          </mxGeometry>
        </mxCell>
        <mxCell id="0ocJRL83DzMjkrTS3D_y-7" style="edgeStyle=orthogonalEdgeStyle;rounded=0;orthogonalLoop=1;jettySize=auto;html=1;endArrow=none;endFill=0;" edge="1" parent="1" source="r9oNSFr8-LkXDj52V4li-1" target="r9oNSFr8-LkXDj52V4li-2">
          <mxGeometry relative="1" as="geometry" />
        </mxCell>
        <mxCell id="r9oNSFr8-LkXDj52V4li-1" value="Pedido" style="whiteSpace=wrap;html=1;align=center;" vertex="1" parent="1">
          <mxGeometry x="390" y="140" width="100" height="40" as="geometry" />
        </mxCell>
        <mxCell id="0ocJRL83DzMjkrTS3D_y-8" style="edgeStyle=orthogonalEdgeStyle;rounded=0;orthogonalLoop=1;jettySize=auto;html=1;endArrow=none;endFill=0;" edge="1" parent="1" source="r9oNSFr8-LkXDj52V4li-2" target="r9oNSFr8-LkXDj52V4li-7">
          <mxGeometry relative="1" as="geometry" />
        </mxCell>
        <mxCell id="r9oNSFr8-LkXDj52V4li-2" value="Tem" style="shape=rhombus;perimeter=rhombusPerimeter;whiteSpace=wrap;html=1;align=center;" vertex="1" parent="1">
          <mxGeometry x="380" y="250" width="120" height="60" as="geometry" />
        </mxCell>
        <mxCell id="0ocJRL83DzMjkrTS3D_y-11" style="edgeStyle=orthogonalEdgeStyle;rounded=0;orthogonalLoop=1;jettySize=auto;html=1;endArrow=none;endFill=0;" edge="1" parent="1" source="r9oNSFr8-LkXDj52V4li-3" target="0ocJRL83DzMjkrTS3D_y-9">
          <mxGeometry relative="1" as="geometry" />
        </mxCell>
        <mxCell id="r9oNSFr8-LkXDj52V4li-3" value="Produto" style="whiteSpace=wrap;html=1;align=center;" vertex="1" parent="1">
          <mxGeometry x="760" y="380" width="100" height="40" as="geometry" />
        </mxCell>
        <mxCell id="r9oNSFr8-LkXDj52V4li-4" value="Tem" style="shape=rhombus;perimeter=rhombusPerimeter;whiteSpace=wrap;html=1;align=center;" vertex="1" parent="1">
          <mxGeometry x="210" y="130" width="120" height="60" as="geometry" />
        </mxCell>
        <mxCell id="0ocJRL83DzMjkrTS3D_y-1" style="edgeStyle=orthogonalEdgeStyle;rounded=0;orthogonalLoop=1;jettySize=auto;html=1;entryX=0;entryY=0.5;entryDx=0;entryDy=0;endArrow=none;endFill=0;" edge="1" parent="1" source="r9oNSFr8-LkXDj52V4li-5" target="r9oNSFr8-LkXDj52V4li-4">
          <mxGeometry relative="1" as="geometry" />
        </mxCell>
        <mxCell id="r9oNSFr8-LkXDj52V4li-5" value="Cliente" style="whiteSpace=wrap;html=1;align=center;" vertex="1" parent="1">
          <mxGeometry x="60" y="140" width="100" height="40" as="geometry" />
        </mxCell>
        <mxCell id="0ocJRL83DzMjkrTS3D_y-5" style="edgeStyle=orthogonalEdgeStyle;rounded=0;orthogonalLoop=1;jettySize=auto;html=1;endArrow=none;endFill=0;" edge="1" parent="1" source="r9oNSFr8-LkXDj52V4li-6" target="r9oNSFr8-LkXDj52V4li-8">
          <mxGeometry relative="1" as="geometry" />
        </mxCell>
        <mxCell id="r9oNSFr8-LkXDj52V4li-6" value="Item do Pedido" style="whiteSpace=wrap;html=1;align=center;" vertex="1" parent="1">
          <mxGeometry x="760" y="140" width="100" height="40" as="geometry" />
        </mxCell>
        <mxCell id="r9oNSFr8-LkXDj52V4li-7" value="Pagamento" style="whiteSpace=wrap;html=1;align=center;" vertex="1" parent="1">
          <mxGeometry x="390" y="380" width="100" height="40" as="geometry" />
        </mxCell>
        <mxCell id="r9oNSFr8-LkXDj52V4li-8" value="Tem" style="shape=rhombus;perimeter=rhombusPerimeter;whiteSpace=wrap;html=1;align=center;" vertex="1" parent="1">
          <mxGeometry x="560" y="130" width="120" height="60" as="geometry" />
        </mxCell>
        <mxCell id="0ocJRL83DzMjkrTS3D_y-10" style="edgeStyle=orthogonalEdgeStyle;rounded=0;orthogonalLoop=1;jettySize=auto;html=1;entryX=0.5;entryY=1;entryDx=0;entryDy=0;endArrow=none;endFill=0;" edge="1" parent="1" source="0ocJRL83DzMjkrTS3D_y-9" target="r9oNSFr8-LkXDj52V4li-6">
          <mxGeometry relative="1" as="geometry" />
        </mxCell>
        <mxCell id="0ocJRL83DzMjkrTS3D_y-9" value="Tem" style="shape=rhombus;perimeter=rhombusPerimeter;whiteSpace=wrap;html=1;align=center;" vertex="1" parent="1">
          <mxGeometry x="750" y="250" width="120" height="60" as="geometry" />
        </mxCell>
        <mxCell id="0ocJRL83DzMjkrTS3D_y-14" style="edgeStyle=orthogonalEdgeStyle;rounded=0;orthogonalLoop=1;jettySize=auto;html=1;entryX=0.5;entryY=1;entryDx=0;entryDy=0;endArrow=none;endFill=0;" edge="1" parent="1" source="0ocJRL83DzMjkrTS3D_y-12" target="r9oNSFr8-LkXDj52V4li-3">
          <mxGeometry relative="1" as="geometry" />
        </mxCell>
        <mxCell id="0ocJRL83DzMjkrTS3D_y-12" value="Tem" style="shape=rhombus;perimeter=rhombusPerimeter;whiteSpace=wrap;html=1;align=center;" vertex="1" parent="1">
          <mxGeometry x="750" y="470" width="120" height="60" as="geometry" />
        </mxCell>
        <mxCell id="0ocJRL83DzMjkrTS3D_y-15" style="edgeStyle=orthogonalEdgeStyle;rounded=0;orthogonalLoop=1;jettySize=auto;html=1;entryX=0.5;entryY=1;entryDx=0;entryDy=0;endArrow=none;endFill=0;" edge="1" parent="1" source="0ocJRL83DzMjkrTS3D_y-13" target="0ocJRL83DzMjkrTS3D_y-12">
          <mxGeometry relative="1" as="geometry" />
        </mxCell>
        <mxCell id="0ocJRL83DzMjkrTS3D_y-13" value="Categoria" style="whiteSpace=wrap;html=1;align=center;" vertex="1" parent="1">
          <mxGeometry x="760" y="585" width="100" height="40" as="geometry" />
        </mxCell>
        <mxCell id="0ocJRL83DzMjkrTS3D_y-19" style="edgeStyle=orthogonalEdgeStyle;rounded=0;orthogonalLoop=1;jettySize=auto;html=1;endArrow=none;endFill=0;" edge="1" parent="1" source="0ocJRL83DzMjkrTS3D_y-16" target="0ocJRL83DzMjkrTS3D_y-18">
          <mxGeometry relative="1" as="geometry" />
        </mxCell>
        <mxCell id="0ocJRL83DzMjkrTS3D_y-16" value="Tem" style="shape=rhombus;perimeter=rhombusPerimeter;whiteSpace=wrap;html=1;align=center;" vertex="1" parent="1">
          <mxGeometry x="50" y="250" width="120" height="60" as="geometry" />
        </mxCell>
        <mxCell id="0ocJRL83DzMjkrTS3D_y-18" value="Endereço De Entrega" style="whiteSpace=wrap;html=1;align=center;" vertex="1" parent="1">
          <mxGeometry x="60" y="380" width="100" height="40" as="geometry" />
        </mxCell>
        <mxCell id="0ocJRL83DzMjkrTS3D_y-22" style="edgeStyle=orthogonalEdgeStyle;rounded=0;orthogonalLoop=1;jettySize=auto;html=1;entryX=0.494;entryY=0.057;entryDx=0;entryDy=0;entryPerimeter=0;endArrow=none;endFill=0;" edge="1" parent="1" source="r9oNSFr8-LkXDj52V4li-5" target="0ocJRL83DzMjkrTS3D_y-16">
          <mxGeometry relative="1" as="geometry" />
        </mxCell>
      </root>
    </mxGraphModel>
  </diagram>
</mxfile>
